<svg width="32" height="32" viewBox="0 0 32 32" fill="none" xmlns="http://www.w3.org/2000/svg">
  <!-- Fedora Hat -->
  <path d="M6 10C6 8.89543 6.89543 8 8 8H24C25.1046 8 26 8.89543 26 10V13C26 14.1046 25.1046 15 24 15H8C6.89543 15 6 14.1046 6 13V10Z" fill="#000000"/>
  <path d="M8 15C8 16.1046 8.89543 17 10 17H22C23.1046 17 24 16.1046 24 15V13C24 14.1046 23.1046 15 22 15H10C8.89543 15 8 14.1046 8 13V15Z" fill="#000000"/>
  
  <!-- Hat Brim -->
  <path d="M5 17C5 15.8954 5.89543 15 7 15H25C26.1046 15 27 15.8954 27 17V18C27 19.1046 26.1046 20 25 20H7C5.89543 20 5 19.1046 5 18V17Z" fill="#000000"/>
  
  <!-- Sunglasses -->
  <path d="M10 20C10 18.8954 10.8954 18 12 18H20C21.1046 18 22 18.8954 22 20V21C22 22.1046 21.1046 23 20 23H12C10.8954 23 10 22.1046 10 21V20Z" fill="#000000"/>
  
  <!-- Bridge -->
  <path d="M14 20C14 18.8954 14.8954 18 16 18H18C19.1046 18 20 18.8954 20 20V21C20 22.1046 19.1046 23 18 23H16C14.8954 23 14 22.1046 14 21V20Z" fill="#000000"/>
  
  <!-- White outlines for contrast -->
  <path d="M6 10C6 8.89543 6.89543 8 8 8H24C25.1046 8 26 8.89543 26 10V13C26 14.1046 25.1046 15 24 15H8C6.89543 15 6 14.1046 6 13V10Z" stroke="#FFFFFF" stroke-width="0.3" fill="none"/>
  <path d="M5 17C5 15.8954 5.89543 15 7 15H25C26.1046 15 27 15.8954 27 17V18C27 19.1046 26.1046 20 25 20H7C5.89543 20 5 19.1046 5 18V17Z" stroke="#FFFFFF" stroke-width="0.3" fill="none"/>
  <path d="M10 20C10 18.8954 10.8954 18 12 18H20C21.1046 18 22 18.8954 22 20V21C22 22.1046 21.1046 23 20 23H12C10.8954 23 10 22.1046 10 21V20Z" stroke="#FFFFFF" stroke-width="0.3" fill="none"/>
</svg> 