<svg width="40" height="40" viewBox="0 0 40 40" fill="none" xmlns="http://www.w3.org/2000/svg">
  <!-- Fedora Hat -->
  <path d="M8 12C8 10.8954 8.89543 10 10 10H30C31.1046 10 32 10.8954 32 12V16C32 17.1046 31.1046 18 30 18H10C8.89543 18 8 17.1046 8 16V12Z" fill="#000000"/>
  <path d="M10 18C10 19.1046 10.8954 20 12 20H28C29.1046 20 30 19.1046 30 18V16C30 17.1046 29.1046 18 28 18H12C10.8954 18 10 17.1046 10 16V18Z" fill="#000000"/>
  
  <!-- Hat Brim -->
  <path d="M6 20C6 18.8954 6.89543 18 8 18H32C33.1046 18 34 18.8954 34 20V22C34 23.1046 33.1046 24 32 24H8C6.89543 24 6 23.1046 6 22V20Z" fill="#000000"/>
  
  <!-- Sunglasses -->
  <path d="M12 24C12 22.8954 12.8954 22 14 22H26C27.1046 22 28 22.8954 28 24V26C28 27.1046 27.1046 28 26 28H14C12.8954 28 12 27.1046 12 26V24Z" fill="#000000"/>
  
  <!-- Bridge -->
  <path d="M18 24C18 22.8954 18.8954 22 20 22H22C23.1046 22 24 22.8954 24 24V26C24 27.1046 23.1046 28 22 28H20C18.8954 28 18 27.1046 18 26V24Z" fill="#000000"/>
  
  <!-- White outlines for contrast -->
  <path d="M8 12C8 10.8954 8.89543 10 10 10H30C31.1046 10 32 10.8954 32 12V16C32 17.1046 31.1046 18 30 18H10C8.89543 18 8 17.1046 8 16V12Z" stroke="#FFFFFF" stroke-width="0.5" fill="none"/>
  <path d="M6 20C6 18.8954 6.89543 18 8 18H32C33.1046 18 34 18.8954 34 20V22C34 23.1046 33.1046 24 32 24H8C6.89543 24 6 23.1046 6 22V20Z" stroke="#FFFFFF" stroke-width="0.5" fill="none"/>
  <path d="M12 24C12 22.8954 12.8954 22 14 22H26C27.1046 22 28 22.8954 28 24V26C28 27.1046 27.1046 28 26 28H14C12.8954 28 12 27.1046 12 26V24Z" stroke="#FFFFFF" stroke-width="0.5" fill="none"/>
</svg> 